<svg width="589" height="170" viewBox="0 0 589 170" fill="none" xmlns="http://www.w3.org/2000/svg">
<path d="M46.824 70.44H55.752V74.256H61.656L57.336 77.064C57.48 74.616 58.152 72.72 59.352 71.376C60.6 69.984 62.256 69.288 64.32 69.288C66.24 69.288 67.824 70.032 69.072 71.52C70.32 73.008 71.064 75.072 71.304 77.712L66.984 74.544H76.56L72.312 77.136C72.456 74.688 73.2 72.768 74.544 71.376C75.888 69.984 77.64 69.288 79.8 69.288C82.248 69.288 84.192 70.32 85.632 72.384C87.12 74.4 87.864 77.208 87.864 80.808V114H79.44V84.336C79.44 82.56 79.104 81.24 78.432 80.376C77.76 79.464 76.776 79.008 75.48 79.008C74.184 79.008 73.2 79.464 72.528 80.376C71.856 81.24 71.52 82.56 71.52 84.336V114H63.096V84.336C63.096 82.56 62.76 81.24 62.088 80.376C61.464 79.464 60.504 79.008 59.208 79.008C57.912 79.008 56.928 79.464 56.256 80.376C55.584 81.24 55.248 82.56 55.248 84.336V114H46.824V70.44ZM126.83 86.712V94.2L114.59 96.072C112.718 96.408 111.326 97.08 110.414 98.088C109.502 99.048 109.046 100.32 109.046 101.904C109.046 103.44 109.598 104.688 110.702 105.648C111.806 106.56 113.294 107.016 115.166 107.016C117.134 107.016 118.934 106.56 120.566 105.648C122.246 104.688 123.566 103.44 124.526 101.904C125.534 100.32 126.038 98.568 126.038 96.648V85.92C126.038 83.232 125.246 81.144 123.662 79.656C122.126 78.168 119.966 77.424 117.182 77.424C115.214 77.424 113.462 77.76 111.926 78.432C110.39 79.056 109.142 79.992 108.182 81.24C107.222 82.44 106.55 83.928 106.166 85.704H97.4541C97.7421 82.296 98.7261 79.368 100.406 76.92C102.134 74.472 104.438 72.6 107.318 71.304C110.198 69.96 113.534 69.288 117.326 69.288C122.942 69.288 127.262 70.68 130.286 73.464C133.358 76.2 134.894 80.136 134.894 85.272V114H126.038V109.896H123.734C122.678 111.576 121.238 112.872 119.414 113.784C117.638 114.648 115.43 115.08 112.79 115.08C110.15 115.08 107.822 114.552 105.806 113.496C103.838 112.44 102.302 110.976 101.198 109.104C100.142 107.184 99.6141 104.976 99.6141 102.48C99.6141 98.784 100.766 95.76 103.07 93.408C105.422 91.056 108.782 89.544 113.15 88.872L126.83 86.712ZM149.308 70.44H166.804V73.896H169.18C169.996 72.408 171.172 71.28 172.708 70.512C174.244 69.696 175.972 69.288 177.892 69.288C181.396 69.288 184.108 70.536 186.028 73.032C187.996 75.528 188.98 79.032 188.98 83.544V90.096H179.62V84.84C179.62 80.232 177.796 77.928 174.148 77.928C171.844 77.928 170.116 78.96 168.964 81.024C167.86 83.088 167.308 86.208 167.308 90.384V105.648H180.412V114H150.46V105.648H158.38V78.792H149.308V70.44ZM228.306 114L210.45 92.832L229.098 70.44H239.97L221.538 92.472L239.682 114H228.306ZM203.898 114V52.944H212.97V114H203.898ZM256.976 87.72H282.536L279.512 91.68C279.512 86.976 278.672 83.424 276.992 81.024C275.36 78.576 272.912 77.352 269.648 77.352C266.192 77.352 263.528 78.624 261.656 81.168C259.784 83.712 258.848 87.288 258.848 91.896C258.848 96.84 259.784 100.632 261.656 103.272C263.528 105.864 266.288 107.16 269.936 107.16C272.192 107.16 274.184 106.608 275.912 105.504C277.64 104.352 279.104 102.72 280.304 100.608H288.872C288.104 103.632 286.808 106.248 284.984 108.456C283.208 110.616 281.024 112.296 278.432 113.496C275.888 114.648 273.032 115.224 269.864 115.224C265.688 115.224 262.112 114.312 259.136 112.488C256.208 110.616 253.952 107.952 252.368 104.496C250.832 100.992 250.064 96.792 250.064 91.896C250.064 87.24 250.856 83.232 252.44 79.872C254.072 76.512 256.352 73.92 259.28 72.096C262.208 70.224 265.664 69.288 269.648 69.288C273.44 69.288 276.68 70.152 279.368 71.88C282.104 73.608 284.168 76.152 285.56 79.512C287 82.824 287.72 86.856 287.72 91.608C287.72 92.232 287.696 92.856 287.648 93.48C287.648 94.056 287.624 94.632 287.576 95.208H256.976V87.72ZM317.83 59.208V70.44H337.27V78.792H317.83V99.456C317.83 101.856 318.31 103.704 319.27 105C320.23 106.248 321.646 106.872 323.518 106.872C325.438 106.872 326.95 106.176 328.054 104.784C329.206 103.392 330.046 101.208 330.574 98.232H338.638C338.398 103.752 336.934 107.976 334.246 110.904C331.606 113.784 327.934 115.224 323.23 115.224C318.574 115.224 314.998 113.88 312.502 111.192C310.006 108.456 308.758 104.616 308.758 99.672V78.792H299.686V70.44H308.758V59.208H317.83ZM352.116 114V70.44H361.188V73.968H363.492C364.5 72.48 365.868 71.328 367.596 70.512C369.372 69.696 371.316 69.288 373.428 69.288C376.452 69.288 379.044 69.96 381.204 71.304C383.364 72.648 385.044 74.568 386.244 77.064C387.444 79.56 388.044 82.536 388.044 85.992V114H378.972V88.296C378.972 84.888 378.204 82.296 376.668 80.52C375.18 78.744 372.972 77.856 370.044 77.856C367.116 77.856 364.908 78.744 363.42 80.52C361.932 82.296 361.188 84.888 361.188 88.296V114H352.116ZM429.314 86.712V94.2L417.074 96.072C415.202 96.408 413.81 97.08 412.898 98.088C411.986 99.048 411.53 100.32 411.53 101.904C411.53 103.44 412.082 104.688 413.186 105.648C414.29 106.56 415.778 107.016 417.65 107.016C419.618 107.016 421.418 106.56 423.05 105.648C424.73 104.688 426.05 103.44 427.01 101.904C428.018 100.32 428.522 98.568 428.522 96.648V85.92C428.522 83.232 427.73 81.144 426.146 79.656C424.61 78.168 422.45 77.424 419.666 77.424C417.698 77.424 415.946 77.76 414.41 78.432C412.874 79.056 411.626 79.992 410.666 81.24C409.706 82.44 409.034 83.928 408.65 85.704H399.938C400.226 82.296 401.21 79.368 402.89 76.92C404.618 74.472 406.922 72.6 409.802 71.304C412.682 69.96 416.018 69.288 419.81 69.288C425.426 69.288 429.746 70.68 432.77 73.464C435.842 76.2 437.378 80.136 437.378 85.272V114H428.522V109.896H426.218C425.162 111.576 423.722 112.872 421.898 113.784C420.122 114.648 417.914 115.08 415.274 115.08C412.634 115.08 410.306 114.552 408.29 113.496C406.322 112.44 404.786 110.976 403.682 109.104C402.626 107.184 402.098 104.976 402.098 102.48C402.098 98.784 403.25 95.76 405.554 93.408C407.906 91.056 411.266 89.544 415.634 88.872L429.314 86.712ZM452.945 114V70.44H462.017V73.968H464.32C465.329 72.48 466.697 71.328 468.425 70.512C470.201 69.696 472.145 69.288 474.257 69.288C477.281 69.288 479.873 69.96 482.033 71.304C484.193 72.648 485.873 74.568 487.073 77.064C488.273 79.56 488.873 82.536 488.873 85.992V114H479.801V88.296C479.801 84.888 479.033 82.296 477.497 80.52C476.009 78.744 473.801 77.856 470.873 77.856C467.945 77.856 465.737 78.744 464.249 80.52C462.761 82.296 462.017 84.888 462.017 88.296V114H452.945ZM520.927 115.224C516.847 115.224 513.295 114.288 510.271 112.416C507.295 110.544 504.967 107.904 503.287 104.496C501.655 101.04 500.839 96.96 500.839 92.256C500.839 87.552 501.655 83.496 503.287 80.088C504.967 76.632 507.295 73.968 510.271 72.096C513.295 70.224 516.847 69.288 520.927 69.288C525.055 69.288 528.607 70.224 531.583 72.096C534.559 73.968 536.863 76.632 538.495 80.088C540.175 83.496 541.015 87.552 541.015 92.256C541.015 96.96 540.175 101.04 538.495 104.496C536.863 107.904 534.559 110.544 531.583 112.416C528.607 114.288 525.055 115.224 520.927 115.224ZM520.927 106.872C524.431 106.872 527.167 105.6 529.135 103.056C531.103 100.464 532.087 96.864 532.087 92.256C532.087 87.6 531.103 84 529.135 81.456C527.167 78.864 524.431 77.568 520.927 77.568C517.423 77.568 514.687 78.864 512.719 81.456C510.751 84 509.767 87.6 509.767 92.256C509.767 96.864 510.751 100.464 512.719 103.056C514.687 105.6 517.423 106.872 520.927 106.872Z" fill="black"/>
<rect x="5" y="5" width="579" height="160" rx="80" stroke="black" stroke-width="10"/>
</svg>
